<svg width="294" height="36" viewBox="0 0 294 36" fill="none" xmlns="http://www.w3.org/2000/svg">
<path d="M43.95 28V13.12H47.34L47.64 15.64C48.1 14.76 48.76 14.06 49.62 13.54C50.5 13.02 51.53 12.76 52.71 12.76C54.55 12.76 55.98 13.34 57 14.5C58.02 15.66 58.53 17.36 58.53 19.6V28H54.69V19.96C54.69 18.68 54.43 17.7 53.91 17.02C53.39 16.34 52.58 16 51.48 16C50.4 16 49.51 16.38 48.81 17.14C48.13 17.9 47.79 18.96 47.79 20.32V28H43.95ZM70.782 28.36C68.922 28.36 67.482 27.78 66.462 26.62C65.462 25.46 64.962 23.76 64.962 21.52V13.12H68.772V21.16C68.772 22.44 69.032 23.42 69.552 24.1C70.072 24.78 70.892 25.12 72.012 25.12C73.072 25.12 73.942 24.74 74.622 23.98C75.322 23.22 75.672 22.16 75.672 20.8V13.12H79.512V28H76.122L75.822 25.48C75.362 26.36 74.692 27.06 73.812 27.58C72.952 28.1 71.942 28.36 70.782 28.36ZM85.0439 28L90.4439 20.56L85.0439 13.12H89.1539L92.9339 18.4L96.6839 13.12H100.824L95.3939 20.56L100.824 28H96.6839L92.9339 22.72L89.1539 28H85.0439ZM112.9 28C111.34 28 110.09 27.62 109.15 26.86C108.21 26.1 107.74 24.75 107.74 22.81V16.33H105.19V13.12H107.74L108.19 9.13H111.58V13.12H115.6V16.33H111.58V22.84C111.58 23.56 111.73 24.06 112.03 24.34C112.35 24.6 112.89 24.73 113.65 24.73H115.51V28H112.9ZM120.637 31.33L128.137 4.69H131.887L124.357 31.33H120.637Z" fill="#003C3C"/>
<path d="M137.524 28V6.4H141.364V28H137.524ZM153.418 28.36C152.138 28.36 151.088 28.16 150.268 27.76C149.448 27.34 148.838 26.79 148.438 26.11C148.038 25.43 147.838 24.68 147.838 23.86C147.838 22.48 148.378 21.36 149.458 20.5C150.538 19.64 152.158 19.21 154.318 19.21H158.098V18.85C158.098 17.83 157.808 17.08 157.228 16.6C156.648 16.12 155.928 15.88 155.068 15.88C154.288 15.88 153.608 16.07 153.028 16.45C152.448 16.81 152.088 17.35 151.948 18.07H148.198C148.298 16.99 148.658 16.05 149.278 15.25C149.918 14.45 150.738 13.84 151.738 13.42C152.738 12.98 153.858 12.76 155.098 12.76C157.218 12.76 158.888 13.29 160.108 14.35C161.328 15.41 161.938 16.91 161.938 18.85V28H158.668L158.308 25.6C157.868 26.4 157.248 27.06 156.448 27.58C155.668 28.1 154.658 28.36 153.418 28.36ZM154.288 25.36C155.388 25.36 156.238 25 156.838 24.28C157.458 23.56 157.848 22.67 158.008 21.61H154.738C153.718 21.61 152.988 21.8 152.548 22.18C152.108 22.54 151.888 22.99 151.888 23.53C151.888 24.11 152.108 24.56 152.548 24.88C152.988 25.2 153.568 25.36 154.288 25.36ZM167.642 28V24.91L175.232 16.3H167.732V13.12H179.612V16.21L171.902 24.82H179.762V28H167.642ZM187.818 34.6L191.268 27.01H190.368L184.578 13.12H188.748L192.918 23.59L197.268 13.12H201.348L191.898 34.6H187.818ZM206.528 20.92V17.71H219.098V20.92H206.528ZM225.679 28V6.4H229.519V28H225.679ZM243.582 28.36C242.142 28.36 240.842 28.03 239.682 27.37C238.542 26.71 237.632 25.8 236.952 24.64C236.292 23.46 235.962 22.1 235.962 20.56C235.962 19.02 236.302 17.67 236.982 16.51C237.662 15.33 238.572 14.41 239.712 13.75C240.872 13.09 242.172 12.76 243.612 12.76C245.032 12.76 246.312 13.09 247.452 13.75C248.612 14.41 249.522 15.33 250.182 16.51C250.862 17.67 251.202 19.02 251.202 20.56C251.202 22.1 250.862 23.46 250.182 24.64C249.522 25.8 248.612 26.71 247.452 27.37C246.292 28.03 245.002 28.36 243.582 28.36ZM243.582 25.03C244.582 25.03 245.452 24.66 246.192 23.92C246.932 23.16 247.302 22.04 247.302 20.56C247.302 19.08 246.932 17.97 246.192 17.23C245.452 16.47 244.592 16.09 243.612 16.09C242.592 16.09 241.712 16.47 240.972 17.23C240.252 17.97 239.892 19.08 239.892 20.56C239.892 22.04 240.252 23.16 240.972 23.92C241.712 24.66 242.582 25.03 243.582 25.03ZM262.766 28.36C261.486 28.36 260.436 28.16 259.616 27.76C258.796 27.34 258.186 26.79 257.786 26.11C257.386 25.43 257.186 24.68 257.186 23.86C257.186 22.48 257.726 21.36 258.806 20.5C259.886 19.64 261.506 19.21 263.666 19.21H267.446V18.85C267.446 17.83 267.156 17.08 266.576 16.6C265.996 16.12 265.276 15.88 264.416 15.88C263.636 15.88 262.956 16.07 262.376 16.45C261.796 16.81 261.436 17.35 261.296 18.07H257.546C257.646 16.99 258.006 16.05 258.626 15.25C259.266 14.45 260.086 13.84 261.086 13.42C262.086 12.98 263.206 12.76 264.446 12.76C266.566 12.76 268.236 13.29 269.456 14.35C270.676 15.41 271.286 16.91 271.286 18.85V28H268.016L267.656 25.6C267.216 26.4 266.596 27.06 265.796 27.58C265.016 28.1 264.006 28.36 262.766 28.36ZM263.636 25.36C264.736 25.36 265.586 25 266.186 24.28C266.806 23.56 267.196 22.67 267.356 21.61H264.086C263.066 21.61 262.336 21.8 261.896 22.18C261.456 22.54 261.236 22.99 261.236 23.53C261.236 24.11 261.456 24.56 261.896 24.88C262.336 25.2 262.916 25.36 263.636 25.36ZM284.79 28.36C283.39 28.36 282.14 28.02 281.04 27.34C279.94 26.66 279.07 25.73 278.43 24.55C277.79 23.37 277.47 22.03 277.47 20.53C277.47 19.03 277.79 17.7 278.43 16.54C279.07 15.36 279.94 14.44 281.04 13.78C282.14 13.1 283.39 12.76 284.79 12.76C285.91 12.76 286.89 12.97 287.73 13.39C288.57 13.81 289.25 14.4 289.77 15.16V6.4H293.61V28H290.19L289.77 25.87C289.29 26.53 288.65 27.11 287.85 27.61C287.07 28.11 286.05 28.36 284.79 28.36ZM285.6 25C286.84 25 287.85 24.59 288.63 23.77C289.43 22.93 289.83 21.86 289.83 20.56C289.83 19.26 289.43 18.2 288.63 17.38C287.85 16.54 286.84 16.12 285.6 16.12C284.38 16.12 283.37 16.53 282.57 17.35C281.77 18.17 281.37 19.23 281.37 20.53C281.37 21.83 281.77 22.9 282.57 23.74C283.37 24.58 284.38 25 285.6 25Z" fill="#00BB6F"/>
<path d="M15.7024 10.0178C17.6404 10.0178 19.2115 8.44684 19.2115 6.50892C19.2115 4.571 17.6404 3 15.7024 3C13.7644 3 12.1934 4.571 12.1934 6.50892C12.1934 8.44684 13.7644 10.0178 15.7024 10.0178Z" fill="#00BB6F"/>
<path d="M15.7029 32.9998C16.8655 32.9998 17.8081 32.0573 17.8081 30.8947C17.8081 29.732 16.8655 28.7896 15.7029 28.7896C14.5402 28.7896 13.5977 29.732 13.5977 30.8947C13.5977 32.0573 14.5402 32.9998 15.7029 32.9998Z" fill="#00BB6F"/>
<path d="M7.08025 13.2374C8.82457 13.2374 10.2386 11.8234 10.2386 10.0792C10.2386 8.3349 8.82457 6.9209 7.08025 6.9209C5.33593 6.9209 3.92188 8.3349 3.92188 10.0792C3.92188 11.8234 5.33593 13.2374 7.08025 13.2374Z" fill="#00BB6F"/>
<path d="M24.3248 29.0768C25.2938 29.0768 26.0794 28.2913 26.0794 27.3223C26.0794 26.3534 25.2938 25.5679 24.3248 25.5679C23.3558 25.5679 22.5703 26.3534 22.5703 27.3223C22.5703 28.2913 23.3558 29.0768 24.3248 29.0768Z" fill="#00BB6F"/>
<path d="M3.50871 21.5089C5.05873 21.5089 6.31527 20.2524 6.31527 18.7024C6.31527 17.1525 5.05873 15.896 3.50871 15.896C1.95869 15.896 0.702148 17.1525 0.702148 18.7024C0.702148 20.2524 1.95869 21.5089 3.50871 21.5089Z" fill="#00BB6F"/>
<path d="M27.8959 20.1041C28.6706 20.1041 29.2986 19.4761 29.2986 18.7015C29.2986 17.9268 28.6706 17.2988 27.8959 17.2988C27.1212 17.2988 26.4932 17.9268 26.4932 18.7015C26.4932 19.4761 27.1212 20.1041 27.8959 20.1041Z" fill="#00BB6F"/>
<path d="M5.34388 25.5884C4.38407 26.5481 4.38407 28.1011 5.34388 29.0608C6.30255 30.0206 7.85783 30.0206 8.8165 29.0608C9.77631 28.1011 9.77631 26.5481 8.8165 25.5884C7.85783 24.6274 6.30369 24.6183 5.34388 25.5884Z" fill="#00BB6F"/>
<path d="M24.3235 11.1313C24.9045 11.1313 25.3755 10.6603 25.3755 10.0793C25.3755 9.49834 24.9045 9.02734 24.3235 9.02734C23.7425 9.02734 23.2715 9.49834 23.2715 10.0793C23.2715 10.6603 23.7425 11.1313 24.3235 11.1313Z" fill="#00BB6F"/>
<g clip-path="url(#clip0_549_525)">
<path d="M19.3042 13.7144H12.4098C11.9474 13.7144 11.5713 14.0905 11.5713 14.5529V21.4473C11.5713 21.9096 11.9474 22.2858 12.4098 22.2858H19.3042C19.7666 22.2858 20.1427 21.9096 20.1427 21.4473V14.5529C20.1427 14.0905 19.7666 13.7144 19.3042 13.7144ZM19.0247 18.6297L17.5453 17.1503C17.4362 17.0411 17.2592 17.0411 17.15 17.1503L15.3912 18.9092L14.3776 17.9888C14.2684 17.8796 14.0915 17.8796 13.9824 17.9888L12.6893 19.1887V15.1119C12.6893 14.9574 12.8143 14.8324 12.9688 14.8324H18.7452C18.8997 14.8324 19.0247 14.9574 19.0247 15.1119V18.6297H19.0247Z" fill="#00BB6F"/>
</g>
<defs>
<clipPath id="clip0_549_525">
<rect width="8.57143" height="8.57143" fill="white" transform="translate(11.5713 13.7144)"/>
</clipPath>
</defs>
</svg>
