<svg width="354" height="36" viewBox="0 0 354 36" fill="none" xmlns="http://www.w3.org/2000/svg">
<path d="M43.95 28V13.12H47.34L47.64 15.64C48.1 14.76 48.76 14.06 49.62 13.54C50.5 13.02 51.53 12.76 52.71 12.76C54.55 12.76 55.98 13.34 57 14.5C58.02 15.66 58.53 17.36 58.53 19.6V28H54.69V19.96C54.69 18.68 54.43 17.7 53.91 17.02C53.39 16.34 52.58 16 51.48 16C50.4 16 49.51 16.38 48.81 17.14C48.13 17.9 47.79 18.96 47.79 20.32V28H43.95ZM70.782 28.36C68.922 28.36 67.482 27.78 66.462 26.62C65.462 25.46 64.962 23.76 64.962 21.52V13.12H68.772V21.16C68.772 22.44 69.032 23.42 69.552 24.1C70.072 24.78 70.892 25.12 72.012 25.12C73.072 25.12 73.942 24.74 74.622 23.98C75.322 23.22 75.672 22.16 75.672 20.8V13.12H79.512V28H76.122L75.822 25.48C75.362 26.36 74.692 27.06 73.812 27.58C72.952 28.1 71.942 28.36 70.782 28.36ZM85.0439 28L90.4439 20.56L85.0439 13.12H89.1539L92.9339 18.4L96.6839 13.12H100.824L95.3939 20.56L100.824 28H96.6839L92.9339 22.72L89.1539 28H85.0439ZM112.9 28C111.34 28 110.09 27.62 109.15 26.86C108.21 26.1 107.74 24.75 107.74 22.81V16.33H105.19V13.12H107.74L108.19 9.13H111.58V13.12H115.6V16.33H111.58V22.84C111.58 23.56 111.73 24.06 112.03 24.34C112.35 24.6 112.89 24.73 113.65 24.73H115.51V28H112.9ZM120.637 31.33L128.137 4.69H131.887L124.357 31.33H120.637Z" fill="white"/>
<path d="M144.814 28.36C143.294 28.36 141.954 28.03 140.794 27.37C139.634 26.71 138.714 25.79 138.034 24.61C137.374 23.43 137.044 22.08 137.044 20.56C137.044 19.04 137.374 17.69 138.034 16.51C138.714 15.33 139.634 14.41 140.794 13.75C141.954 13.09 143.294 12.76 144.814 12.76C146.714 12.76 148.314 13.26 149.614 14.26C150.914 15.24 151.744 16.6 152.104 18.34H148.054C147.854 17.62 147.454 17.06 146.854 16.66C146.274 16.24 145.584 16.03 144.784 16.03C143.724 16.03 142.824 16.43 142.084 17.23C141.344 18.03 140.974 19.14 140.974 20.56C140.974 21.98 141.344 23.09 142.084 23.89C142.824 24.69 143.724 25.09 144.784 25.09C145.584 25.09 146.274 24.89 146.854 24.49C147.454 24.09 147.854 23.52 148.054 22.78H152.104C151.744 24.46 150.914 25.81 149.614 26.83C148.314 27.85 146.714 28.36 144.814 28.36ZM165.653 28.36C164.213 28.36 162.913 28.03 161.753 27.37C160.613 26.71 159.703 25.8 159.023 24.64C158.363 23.46 158.033 22.1 158.033 20.56C158.033 19.02 158.373 17.67 159.053 16.51C159.733 15.33 160.643 14.41 161.783 13.75C162.943 13.09 164.243 12.76 165.683 12.76C167.103 12.76 168.383 13.09 169.523 13.75C170.683 14.41 171.593 15.33 172.253 16.51C172.933 17.67 173.273 19.02 173.273 20.56C173.273 22.1 172.933 23.46 172.253 24.64C171.593 25.8 170.683 26.71 169.523 27.37C168.363 28.03 167.073 28.36 165.653 28.36ZM165.653 25.03C166.653 25.03 167.523 24.66 168.263 23.92C169.003 23.16 169.373 22.04 169.373 20.56C169.373 19.08 169.003 17.97 168.263 17.23C167.523 16.47 166.663 16.09 165.683 16.09C164.663 16.09 163.783 16.47 163.043 17.23C162.323 17.97 161.963 19.08 161.963 20.56C161.963 22.04 162.323 23.16 163.043 23.92C163.783 24.66 164.653 25.03 165.653 25.03ZM179.706 28V13.12H183.096L183.426 15.13C183.906 14.41 184.536 13.84 185.316 13.42C186.116 12.98 187.036 12.76 188.076 12.76C190.376 12.76 192.006 13.65 192.966 15.43C193.506 14.61 194.226 13.96 195.126 13.48C196.046 13 197.046 12.76 198.126 12.76C200.066 12.76 201.556 13.34 202.596 14.5C203.636 15.66 204.156 17.36 204.156 19.6V28H200.316V19.96C200.316 18.68 200.066 17.7 199.566 17.02C199.086 16.34 198.336 16 197.316 16C196.276 16 195.436 16.38 194.796 17.14C194.176 17.9 193.866 18.96 193.866 20.32V28H190.026V19.96C190.026 18.68 189.776 17.7 189.276 17.02C188.776 16.34 188.006 16 186.966 16C185.946 16 185.116 16.38 184.476 17.14C183.856 17.9 183.546 18.96 183.546 20.32V28H179.706ZM210.802 34.6V13.12H214.222L214.642 15.25C215.122 14.59 215.752 14.01 216.532 13.51C217.332 13.01 218.362 12.76 219.622 12.76C221.022 12.76 222.272 13.1 223.372 13.78C224.472 14.46 225.342 15.39 225.982 16.57C226.622 17.75 226.942 19.09 226.942 20.59C226.942 22.09 226.622 23.43 225.982 24.61C225.342 25.77 224.472 26.69 223.372 27.37C222.272 28.03 221.022 28.36 219.622 28.36C218.502 28.36 217.522 28.15 216.682 27.73C215.842 27.31 215.162 26.72 214.642 25.96V34.6H210.802ZM218.812 25C220.032 25 221.042 24.59 221.842 23.77C222.642 22.95 223.042 21.89 223.042 20.59C223.042 19.29 222.642 18.22 221.842 17.38C221.042 16.54 220.032 16.12 218.812 16.12C217.572 16.12 216.552 16.54 215.752 17.38C214.972 18.2 214.582 19.26 214.582 20.56C214.582 21.86 214.972 22.93 215.752 23.77C216.552 24.59 217.572 25 218.812 25ZM233.372 28V13.12H236.792L237.152 15.91C237.692 14.95 238.422 14.19 239.342 13.63C240.282 13.05 241.382 12.76 242.642 12.76V16.81H241.562C240.722 16.81 239.972 16.94 239.312 17.2C238.652 17.46 238.132 17.91 237.752 18.55C237.392 19.19 237.212 20.08 237.212 21.22V28H233.372ZM255.233 28.36C253.733 28.36 252.403 28.04 251.243 27.4C250.083 26.76 249.173 25.86 248.513 24.7C247.853 23.54 247.523 22.2 247.523 20.68C247.523 19.14 247.843 17.77 248.483 16.57C249.143 15.37 250.043 14.44 251.183 13.78C252.343 13.1 253.703 12.76 255.263 12.76C256.723 12.76 258.013 13.08 259.133 13.72C260.253 14.36 261.123 15.24 261.743 16.36C262.383 17.46 262.703 18.69 262.703 20.05C262.703 20.27 262.693 20.5 262.673 20.74C262.673 20.98 262.663 21.23 262.643 21.49H251.333C251.413 22.65 251.813 23.56 252.533 24.22C253.273 24.88 254.163 25.21 255.203 25.21C255.983 25.21 256.633 25.04 257.153 24.7C257.693 24.34 258.093 23.88 258.353 23.32H262.253C261.973 24.26 261.503 25.12 260.843 25.9C260.203 26.66 259.403 27.26 258.443 27.7C257.503 28.14 256.433 28.36 255.233 28.36ZM255.263 15.88C254.323 15.88 253.493 16.15 252.773 16.69C252.053 17.21 251.593 18.01 251.393 19.09H258.803C258.743 18.11 258.383 17.33 257.723 16.75C257.063 16.17 256.243 15.88 255.263 15.88ZM275.082 28.36C273.762 28.36 272.602 28.15 271.602 27.73C270.602 27.29 269.802 26.69 269.202 25.93C268.602 25.17 268.242 24.29 268.122 23.29H271.992C272.112 23.87 272.432 24.37 272.952 24.79C273.492 25.19 274.182 25.39 275.022 25.39C275.862 25.39 276.472 25.22 276.852 24.88C277.252 24.54 277.452 24.15 277.452 23.71C277.452 23.07 277.172 22.64 276.612 22.42C276.052 22.18 275.272 21.95 274.272 21.73C273.632 21.59 272.982 21.42 272.322 21.22C271.662 21.02 271.052 20.77 270.492 20.47C269.952 20.15 269.512 19.75 269.172 19.27C268.832 18.77 268.662 18.16 268.662 17.44C268.662 16.12 269.182 15.01 270.222 14.11C271.282 13.21 272.762 12.76 274.662 12.76C276.422 12.76 277.822 13.17 278.862 13.99C279.922 14.81 280.552 15.94 280.752 17.38H277.122C276.902 16.28 276.072 15.73 274.632 15.73C273.912 15.73 273.352 15.87 272.952 16.15C272.572 16.43 272.382 16.78 272.382 17.2C272.382 17.64 272.672 17.99 273.252 18.25C273.832 18.51 274.602 18.75 275.562 18.97C276.602 19.21 277.552 19.48 278.412 19.78C279.292 20.06 279.992 20.49 280.512 21.07C281.032 21.63 281.292 22.44 281.292 23.5C281.312 24.42 281.072 25.25 280.572 25.99C280.072 26.73 279.352 27.31 278.412 27.73C277.472 28.15 276.362 28.36 275.082 28.36ZM293.844 28.36C292.524 28.36 291.364 28.15 290.364 27.73C289.364 27.29 288.564 26.69 287.964 25.93C287.364 25.17 287.004 24.29 286.884 23.29H290.754C290.874 23.87 291.194 24.37 291.714 24.79C292.254 25.19 292.944 25.39 293.784 25.39C294.624 25.39 295.234 25.22 295.614 24.88C296.014 24.54 296.214 24.15 296.214 23.71C296.214 23.07 295.934 22.64 295.374 22.42C294.814 22.18 294.034 21.95 293.034 21.73C292.394 21.59 291.744 21.42 291.084 21.22C290.424 21.02 289.814 20.77 289.254 20.47C288.714 20.15 288.274 19.75 287.934 19.27C287.594 18.77 287.424 18.16 287.424 17.44C287.424 16.12 287.944 15.01 288.984 14.11C290.044 13.21 291.524 12.76 293.424 12.76C295.184 12.76 296.584 13.17 297.624 13.99C298.684 14.81 299.314 15.94 299.514 17.38H295.884C295.664 16.28 294.834 15.73 293.394 15.73C292.674 15.73 292.114 15.87 291.714 16.15C291.334 16.43 291.144 16.78 291.144 17.2C291.144 17.64 291.434 17.99 292.014 18.25C292.594 18.51 293.364 18.75 294.324 18.97C295.364 19.21 296.314 19.48 297.174 19.78C298.054 20.06 298.754 20.49 299.274 21.07C299.794 21.63 300.054 22.44 300.054 23.5C300.074 24.42 299.834 25.25 299.334 25.99C298.834 26.73 298.114 27.31 297.174 27.73C296.234 28.15 295.124 28.36 293.844 28.36ZM308.526 10.81C307.826 10.81 307.246 10.6 306.786 10.18C306.346 9.76 306.126 9.23 306.126 8.59C306.126 7.95 306.346 7.43 306.786 7.03C307.246 6.61 307.826 6.4 308.526 6.4C309.226 6.4 309.796 6.61 310.236 7.03C310.696 7.43 310.926 7.95 310.926 8.59C310.926 9.23 310.696 9.76 310.236 10.18C309.796 10.6 309.226 10.81 308.526 10.81ZM306.606 28V13.12H310.446V28H306.606ZM324.594 28.36C323.154 28.36 321.854 28.03 320.694 27.37C319.554 26.71 318.644 25.8 317.964 24.64C317.304 23.46 316.974 22.1 316.974 20.56C316.974 19.02 317.314 17.67 317.994 16.51C318.674 15.33 319.584 14.41 320.724 13.75C321.884 13.09 323.184 12.76 324.624 12.76C326.044 12.76 327.324 13.09 328.464 13.75C329.624 14.41 330.534 15.33 331.194 16.51C331.874 17.67 332.214 19.02 332.214 20.56C332.214 22.1 331.874 23.46 331.194 24.64C330.534 25.8 329.624 26.71 328.464 27.37C327.304 28.03 326.014 28.36 324.594 28.36ZM324.594 25.03C325.594 25.03 326.464 24.66 327.204 23.92C327.944 23.16 328.314 22.04 328.314 20.56C328.314 19.08 327.944 17.97 327.204 17.23C326.464 16.47 325.604 16.09 324.624 16.09C323.604 16.09 322.724 16.47 321.984 17.23C321.264 17.97 320.904 19.08 320.904 20.56C320.904 22.04 321.264 23.16 321.984 23.92C322.724 24.66 323.594 25.03 324.594 25.03ZM338.647 28V13.12H342.037L342.337 15.64C342.797 14.76 343.457 14.06 344.317 13.54C345.197 13.02 346.227 12.76 347.407 12.76C349.247 12.76 350.677 13.34 351.697 14.5C352.717 15.66 353.227 17.36 353.227 19.6V28H349.387V19.96C349.387 18.68 349.127 17.7 348.607 17.02C348.087 16.34 347.277 16 346.177 16C345.097 16 344.207 16.38 343.507 17.14C342.827 17.9 342.487 18.96 342.487 20.32V28H338.647Z" fill="#EC1C24"/>
<path d="M16.4355 14.7832V32.3555L29.3555 27.2754V9.69727L16.4355 14.7832Z" fill="#EC1C24"/>
<path d="M0.644531 27.2754L13.5645 32.3555V14.7832L0.644531 9.69727V27.2754Z" fill="#EC1C24"/>
<path d="M15 3.64453L3.44531 7.64648L15 12.1934L26.5547 7.64648L15 3.64453Z" fill="#EC1C24"/>
</svg>
